<?xml version="1.0" standalone="no"?>
<!DOCTYPE svg PUBLIC "-//W3C//DTD SVG 20010904//EN"
 "http://www.w3.org/TR/2001/REC-SVG-20010904/DTD/svg10.dtd">
<svg version="1.0" xmlns="http://www.w3.org/2000/svg"
 width="207.000000pt" height="124.000000pt" viewBox="0 0 207.000000 124.000000"
 preserveAspectRatio="xMidYMid meet">

<g transform="translate(0.000000,124.000000) scale(0.100000,-0.100000)"
fill="#000000" stroke="none">
<path d="M375 1168 c-3 -7 -6 -69 -7 -138 l-3 -125 -131 -1 c-72 0 -136 -4
-142 -8 -16 -10 -16 -158 0 -174 7 -7 35 -12 63 -12 48 0 52 2 67 33 46 96
139 153 255 156 l32 1 4 118 3 117 2 -117 2 -118 133 2 132 2 -107 3 -107 4
-3 132 -3 132 -93 3 c-68 2 -94 -1 -97 -10z m52 -195 c-2 -32 -3 -8 -3 52 0
61 1 87 3 58 2 -29 2 -78 0 -110z"/>
<path d="M360 705 c0 -25 5 -45 10 -45 6 0 10 20 10 45 0 25 -4 45 -10 45 -5
0 -10 -20 -10 -45z"/>
<path d="M420 705 c0 -33 4 -45 15 -45 10 0 15 10 15 27 l0 27 28 -27 c40 -39
52 -35 52 18 0 33 -4 45 -15 45 -10 0 -15 -10 -15 -27 l0 -27 -28 27 c-40 39
-52 35 -52 -18z"/>
<path d="M577 743 c-17 -16 -6 -43 21 -49 47 -10 48 -12 10 -13 -21 -1 -38 -6
-38 -12 0 -6 17 -9 43 -7 35 2 43 7 45 25 3 17 -3 24 -25 29 -48 10 -49 12
-10 13 20 1 37 6 37 11 0 11 -73 14 -83 3z"/>
<path d="M700 741 c0 -5 9 -11 20 -14 15 -4 20 -14 20 -36 0 -17 5 -31 10 -31
6 0 10 16 10 35 0 28 4 35 20 35 11 0 20 5 20 10 0 6 -22 10 -50 10 -27 0 -50
-4 -50 -9z"/>
<path d="M832 708 c4 -59 28 -63 28 -4 0 35 -4 46 -16 46 -12 0 -14 -9 -12
-42z"/>
<path d="M900 740 c0 -5 7 -10 15 -10 10 0 15 -11 15 -35 0 -24 5 -35 15 -35
10 0 15 11 15 35 0 28 4 35 20 35 11 0 20 5 20 10 0 6 -22 10 -50 10 -27 0
-50 -4 -50 -10z"/>
<path d="M1030 717 c0 -41 15 -57 55 -57 40 0 55 16 55 57 0 43 -18 43 -22 1
-2 -28 -8 -34 -30 -36 -26 -3 -28 -1 -28 32 0 25 -4 36 -15 36 -10 0 -15 -10
-15 -33z"/>
<path d="M1180 740 c0 -5 7 -10 15 -10 10 0 15 -11 15 -35 0 -24 5 -35 15 -35
10 0 15 11 15 35 0 28 4 35 20 35 11 0 20 5 20 10 0 6 -22 10 -50 10 -27 0
-50 -4 -50 -10z"/>
<path d="M1322 738 c-7 -7 -12 -21 -12 -33 0 -31 19 -45 62 -45 27 0 40 5 48
19 10 21 4 51 -14 63 -17 12 -71 9 -84 -4z m78 -33 c0 -21 -5 -25 -29 -25 -33
0 -44 11 -35 34 4 10 18 16 35 16 24 0 29 -4 29 -25z"/>
<path d="M644 606 c-3 -8 -4 -29 -2 -48 3 -31 6 -33 44 -36 29 -2 45 2 55 14
10 12 11 18 3 21 -7 2 -9 13 -7 25 4 11 0 24 -8 29 -22 14 -79 11 -85 -5z m69
-23 c-7 -2 -21 -2 -30 0 -10 3 -4 5 12 5 17 0 24 -2 18 -5z m7 -33 c0 -5 -11
-10 -25 -10 -14 0 -25 5 -25 10 0 6 11 10 25 10 14 0 25 -4 25 -10z"/>
<path d="M794 595 c-15 -23 -15 -27 0 -50 31 -47 106 -25 106 30 0 48 -78 62
-106 20z m80 -14 c4 -5 3 -17 0 -26 -10 -25 -58 -16 -62 13 -3 19 1 22 27 22
16 0 32 -4 35 -9z"/>
<path d="M940 570 c0 -27 5 -50 10 -50 6 0 10 11 10 25 0 29 8 32 26 8 13 -17
15 -17 25 0 15 25 29 21 29 -8 0 -14 5 -25 10 -25 6 0 10 23 10 50 0 57 -9 62
-40 23 l-22 -28 -20 28 c-29 39 -38 34 -38 -23z"/>
<path d="M1160 570 c0 -27 5 -50 10 -50 6 0 10 7 10 15 0 10 10 15 34 15 26 0
36 5 41 20 10 31 -12 50 -56 50 l-39 0 0 -50z m75 10 c-3 -5 -17 -10 -31 -10
-13 0 -24 5 -24 10 0 6 14 10 31 10 17 0 28 -4 24 -10z"/>
<path d="M1310 580 c-23 -45 -27 -71 -8 -52 16 16 65 15 71 0 2 -7 8 -10 13
-5 9 9 -31 97 -46 97 -5 0 -19 -18 -30 -40z m40 -5 c0 -8 -4 -15 -10 -15 -5 0
-10 7 -10 15 0 8 5 15 10 15 6 0 10 -7 10 -15z"/>
<path d="M1442 608 c-26 -26 -7 -48 39 -48 11 0 17 -4 14 -10 -3 -5 -20 -10
-36 -10 -18 0 -28 -4 -24 -10 10 -15 71 -12 85 5 16 20 -1 42 -38 48 -24 4
-24 4 6 6 21 0 32 6 32 16 0 19 -60 21 -78 3z"/>
<path d="M1560 606 c0 -9 9 -16 20 -16 16 0 20 -7 20 -35 0 -19 5 -35 10 -35
6 0 10 15 10 34 0 27 4 35 20 38 41 6 24 23 -27 26 -43 2 -53 0 -53 -12z"/>
<path d="M1712 608 c-7 -7 -12 -24 -12 -38 0 -32 17 -50 48 -50 40 0 62 18 62
50 0 43 -67 69 -98 38z m76 -40 c-2 -18 -10 -23 -33 -23 -23 0 -31 5 -33 23
-3 19 1 22 33 22 32 0 36 -3 33 -22z"/>
<path d="M1850 570 c0 -48 12 -66 24 -35 3 8 12 15 19 15 8 0 20 -7 27 -15 20
-24 26 -18 26 23 -1 51 -11 62 -57 62 l-39 0 0 -50z m75 10 c-3 -5 -15 -10
-25 -10 -10 0 -22 5 -25 10 -4 6 7 10 25 10 18 0 29 -4 25 -10z"/>
<path d="M372 244 l3 -149 95 0 95 0 3 142 3 142 -78 0 c-43 0 -88 3 -101 7
l-23 6 3 -148z"/>
</g>
</svg>
