<?xml version="1.0" standalone="no"?>
<!DOCTYPE svg PUBLIC "-//W3C//DTD SVG 20010904//EN"
 "http://www.w3.org/TR/2001/REC-SVG-20010904/DTD/svg10.dtd">
<svg version="1.0" xmlns="http://www.w3.org/2000/svg"
 width="169.000000pt" height="36.000000pt" viewBox="0 0 169.000000 36.000000"
 preserveAspectRatio="xMidYMid meet">

<g transform="translate(0.000000,36.000000) scale(0.100000,-0.100000)"
fill="#000000" stroke="none">
<path d="M40 245 c0 -25 5 -45 10 -45 6 0 10 20 10 45 0 25 -4 45 -10 45 -5 0
-10 -20 -10 -45z"/>
<path d="M107 253 c-4 -20 -4 -40 -1 -45 8 -13 24 1 24 23 0 26 14 24 34 -6
27 -41 46 -32 46 20 0 25 -4 45 -10 45 -5 0 -10 -11 -10 -25 0 -14 -4 -25 -8
-25 -5 0 -19 11 -32 25 -31 33 -36 32 -43 -12z"/>
<path d="M254 275 c-8 -21 4 -35 31 -35 13 0 27 -4 30 -10 4 -6 -8 -10 -29
-10 -20 0 -36 -4 -36 -10 0 -12 60 -13 79 -1 23 15 5 41 -29 41 -16 0 -30 5
-30 10 0 6 14 10 30 10 17 0 30 5 30 10 0 16 -70 12 -76 -5z"/>
<path d="M380 280 c0 -5 9 -10 20 -10 16 0 20 -7 20 -35 0 -19 5 -35 10 -35 6
0 10 16 10 35 0 28 4 35 20 35 11 0 20 5 20 10 0 6 -22 10 -50 10 -27 0 -50
-4 -50 -10z"/>
<path d="M520 245 c0 -25 5 -45 10 -45 6 0 10 20 10 45 0 25 -4 45 -10 45 -5
0 -10 -20 -10 -45z"/>
<path d="M580 281 c0 -5 9 -11 20 -14 15 -4 20 -14 20 -36 0 -17 5 -31 10 -31
6 0 10 16 10 35 0 28 4 35 20 35 11 0 20 5 20 10 0 6 -22 10 -50 10 -27 0 -50
-4 -50 -9z"/>
<path d="M721 254 c-1 -44 9 -54 53 -54 31 0 46 19 46 57 0 43 -18 43 -22 1
-2 -27 -8 -34 -30 -36 -23 -3 -28 1 -34 25 -10 48 -12 49 -13 7z"/>
<path d="M860 280 c0 -5 7 -10 15 -10 10 0 15 -10 15 -29 0 -42 18 -48 22 -9
2 25 8 34 26 36 42 6 22 22 -28 22 -27 0 -50 -4 -50 -10z"/>
<path d="M1006 274 c-42 -42 16 -92 78 -68 19 7 21 55 4 72 -17 17 -64 15 -82
-4z m74 -29 c0 -21 -5 -25 -29 -25 -17 0 -33 5 -36 10 -13 21 4 40 35 40 25 0
30 -4 30 -25z"/>
<path d="M330 110 l0 -40 44 0 43 0 0 40 0 40 -43 0 -44 0 0 -40z m65 20 c4
-6 -5 -10 -19 -10 -14 0 -26 5 -26 10 0 6 9 10 19 10 11 0 23 -4 26 -10z m5
-40 c0 -5 -11 -10 -25 -10 -14 0 -25 5 -25 10 0 6 11 10 25 10 14 0 25 -4 25
-10z"/>
<path d="M474 136 c-3 -8 -4 -25 -2 -38 3 -20 9 -23 47 -23 51 0 74 22 55 53
-15 23 -92 30 -100 8z m81 -16 c8 -27 -1 -40 -29 -40 -33 0 -53 25 -36 45 18
22 57 19 65 -5z"/>
<path d="M620 110 c0 -22 5 -40 10 -40 6 0 10 9 10 20 0 23 10 26 28 8 9 -9
16 -7 32 7 20 18 20 18 20 -8 0 -15 5 -27 10 -27 6 0 10 18 10 40 0 46 -18 53
-44 18 l-16 -23 -16 23 c-26 35 -44 28 -44 -18z"/>
<path d="M840 110 c0 -22 5 -40 10 -40 6 0 10 4 10 9 0 6 15 11 33 13 27 2 33
8 35 31 3 26 2 27 -42 27 l-46 0 0 -40z m78 13 c2 -9 -7 -13 -27 -13 -30 0
-39 9 -24 24 11 10 46 3 51 -11z"/>
<path d="M987 115 c-9 -20 -17 -37 -17 -38 0 -1 23 -2 50 -2 28 0 50 2 50 5 0
15 -42 70 -53 70 -7 0 -21 -16 -30 -35z m46 10 c7 -16 -8 -29 -23 -20 -10 6
-2 35 10 35 4 0 10 -7 13 -15z"/>
<path d="M1117 136 c-7 -19 12 -36 40 -36 38 0 26 -18 -14 -23 -34 -3 -33 -4
10 -5 45 -2 48 0 45 21 -2 17 -12 23 -38 28 -36 6 -28 14 20 22 16 3 9 5 -16
6 -27 1 -44 -4 -47 -13z"/>
<path d="M1258 140 c16 -7 22 -18 22 -40 0 -16 5 -30 10 -30 6 0 10 14 10 30
0 22 6 33 23 40 17 7 10 9 -33 9 -43 0 -50 -2 -32 -9z"/>
<path d="M1387 144 c-12 -12 -8 -51 7 -63 8 -7 32 -11 53 -9 36 3 38 5 38 38
0 34 -1 35 -45 38 -25 2 -49 0 -53 -4z m78 -34 c0 -20 -6 -26 -28 -28 -18 -2
-29 2 -33 12 -11 28 4 48 33 44 22 -2 28 -8 28 -28z"/>
<path d="M1530 111 c0 -23 5 -41 10 -41 6 0 10 5 10 10 0 14 33 13 48 -2 16
-16 21 -9 24 33 l3 34 -47 3 -48 3 0 -40z m78 12 c2 -9 -7 -13 -27 -13 -30 0
-39 9 -24 24 11 10 46 3 51 -11z"/>
</g>
</svg>
